<svg id="Capa_1" data-name="Capa 1" xmlns="http://www.w3.org/2000/svg" viewBox="0 0 1269.98 489.49"><title>SorteOSO</title><path d="M477.21,1027.4a77.78,77.78,0,0,0-13.6,15.2,108.53,108.53,0,0,0-11.4,20.4,87.78,87.78,0,0,0-6.2,21.4q-1.61,10.61,1.4,18.4T459,1114q8.6,3.4,25-.2a156.35,156.35,0,0,0,33.2-12.8,190.42,190.42,0,0,0,31.6-20.2,128.17,128.17,0,0,0,23.6-23.8q9.2-12.39,9.2-23.2a27,27,0,0,0-7.8-19.6,77.67,77.67,0,0,0-19.6-14.2,197.29,197.29,0,0,0-26-11.2Q514,983.81,501,978a115.07,115.07,0,0,1-23-13.4,35.43,35.43,0,0,1-13.2-18.8q-4.41-15.19,3.4-34.6a150.12,150.12,0,0,1,23-38.2,202.1,202.1,0,0,1,35.6-34.2q20.4-15.39,41-22.2t38.8-2.8q18.2,4,29.8,24a144.22,144.22,0,0,1,7.4-13.6q4.59-7.59,9-14.8t8.6-12.8q4.2-5.6,6.6-7.2,3.6-2.4,11.6.2a55.23,55.23,0,0,1,15,7.6,40.38,40.38,0,0,1,10.8,11q3.8,6-1,9.6-7.6,6.81-17.2,19.4a328.83,328.83,0,0,0-19,28q-9.4,15.4-17.8,32a301.08,301.08,0,0,0-13.8,31.2q-5.4,14.61-6.8,25.6t3,15.4q-4,3.6-10.4,2.6a27.13,27.13,0,0,1-12.4-5.6,39.14,39.14,0,0,1-10.2-12,25.93,25.93,0,0,1-3-16.6,117.18,117.18,0,0,1,5.8-24.8q4.59-13.59,9-27.4a202,202,0,0,0,6.6-26.4q2.19-12.6-1.4-22.2-2-5.19-10.6-3t-20.6,9.6a222.31,222.31,0,0,0-25.4,18.6,263.66,263.66,0,0,0-25,23.8,184.27,184.27,0,0,0-19.8,25.4q-8.2,12.81-9.4,22.8t7.4,16.6a113,113,0,0,0,22.4,12.8q13.8,6.21,30.2,12.8a159.12,159.12,0,0,1,30.2,16,79.76,79.76,0,0,1,22.6,23.2q8.79,13.8,7.6,34.2-.4,10-7.4,21.6a123.29,123.29,0,0,1-18.6,23.2,209,209,0,0,1-26.8,22.4,246.56,246.56,0,0,1-32.4,19.4,235.35,235.35,0,0,1-35.2,14.2,154.34,154.34,0,0,1-34.8,6.8q-14.4.8-24.4-1.2a54.18,54.18,0,0,1-16.8-6,31.21,31.21,0,0,1-11.6-12.8,39.22,39.22,0,0,1-3.6-17,76.13,76.13,0,0,1,2.8-19.8,130.44,130.44,0,0,1,7.6-20.8,211.36,211.36,0,0,1,19-32.8,183,183,0,0,1,22.2-26.4,6.68,6.68,0,0,1,4.8-1.4,9.5,9.5,0,0,1,4.8,1.6,6.43,6.43,0,0,1,2.6,3.4A2.59,2.59,0,0,1,477.21,1027.4Z" transform="translate(-367.81 -729.63)" fill="none" stroke="#f2f2f2" stroke-linecap="round" stroke-linejoin="round" stroke-width="94"/><path d="M781.21,1039a4.18,4.18,0,0,1,4.6,2.2,12.54,12.54,0,0,1,1.4,6,13.68,13.68,0,0,1-1.4,6.2q-1.41,2.8-3.4,2.8a95.9,95.9,0,0,1-17.2.8,71.94,71.94,0,0,1-18.8-4q-2,4-5.2,11a130.5,130.5,0,0,1-7.8,14.4,106.46,106.46,0,0,1-10.8,14.4,48.77,48.77,0,0,1-13.8,11q-6.4,3.6-16.2,2.2a72.48,72.48,0,0,1-19.6-5.8,66.8,66.8,0,0,1-17.4-11.2q-7.61-6.8-9.6-14.8a53.42,53.42,0,0,1-1.2-23.6,134.33,134.33,0,0,1,6.4-25,124.05,124.05,0,0,1,10.6-22.4q6.2-10.2,11.8-15.4a29,29,0,0,1,4.4-3.6,28.32,28.32,0,0,0,4.4-3.6,119.14,119.14,0,0,1-2-17,30.85,30.85,0,0,1,4-16.6q3.6-6.39,15-8.2a55.3,55.3,0,0,1,24,1.8,56.63,56.63,0,0,1,23,13.2q10.4,9.6,12.4,25.6a96.66,96.66,0,0,1-.2,28.4q-2.21,13.61-5.4,28,3.6,2.4,11.8,3.6A47.1,47.1,0,0,0,781.21,1039Zm-101.6,46q15.6-9.2,23-21.6a187.13,187.13,0,0,0,13-26.4,65.33,65.33,0,0,1-21.6-24.4q-2,2-5.2,10.8t-6.2,20.2a152,152,0,0,0-4.2,22.8Q677.21,1077.8,679.61,1085Zm42-70.8a46.17,46.17,0,0,0,3.2-13.4,87.42,87.42,0,0,0,.2-15.6,98.69,98.69,0,0,0-2-14,35.37,35.37,0,0,0-3-9q-6.4,8-5.8,22T721.61,1014.2Z" transform="translate(-367.81 -729.63)" fill="none" stroke="#f2f2f2" stroke-linecap="round" stroke-linejoin="round" stroke-width="94"/><path d="M881.21,1021q.39,3.6,1.8,5a8.91,8.91,0,0,0,2.8,2,20.58,20.58,0,0,1,2.4,1.2c.66.4.86,1.27.6,2.6q-.81,3.21-7,3.6a47.44,47.44,0,0,1-13.4-1.2,60.65,60.65,0,0,1-13.4-4.6q-6.21-3-7-7a43.26,43.26,0,0,1-1.6-14.6q.39-7.8,0-15.8a271.76,271.76,0,0,0-36.4,50.2q-15.21,27-24,63-1.2,4.41-6.6,4.6a27.77,27.77,0,0,1-11.4-2.2,34,34,0,0,1-10.4-6.4q-4.4-4-3.6-8.4a432.16,432.16,0,0,1,10.2-45.2q6.6-23.6,15.4-46.6t18.8-43.8q10-20.79,19.6-37.2a8.35,8.35,0,0,1,5.6-4.4,14.92,14.92,0,0,1,7.6.4q9.19,3.21,13,7.8t1,10.6Q840,945.81,834,958t-12.4,27.8q6-8.4,10.8-15.6,4.4-6,7.8-11.6t4.2-6.8q3.6-5.59,6-6.2c1.6-.4,4.26.2,8,1.8q11.19,4.41,16.8,6.4t7.6,5.2q2,3.21,1.2,9.2t-2,18.4A149.65,149.65,0,0,0,881.21,1021Z" transform="translate(-367.81 -729.63)" fill="none" stroke="#f2f2f2" stroke-linecap="round" stroke-linejoin="round" stroke-width="94"/><path d="M1006.4,879.8q16.8,3.21,26,6,10,3.6,14,8.8a67.62,67.62,0,0,1,5.2,10c.53,2.14,1.07,4.27,1.6,6.4s.93,4.14,1.2,6q0,6-3.6,6.8-6-8-24-12.8-27.19-6-41.2-5.2l-6.4,9.6q-3.19,4.8-6.4,9.6a511.47,511.47,0,0,0-33.6,68.8,543.51,543.51,0,0,0-22,70.4q-7.2,34-4.4,54.8,2.81,22,18.4,23.6-6,5.19-17.6,3.6-10.4-1.2-21.6-12.4-11.19-10.4-14-31.2-1.59-15.6,2.2-36.6a364.91,364.91,0,0,1,12.6-47.8q8.81-26.79,19.8-52.4t23.8-50.4a21.2,21.2,0,0,1,2-3.8,20.27,20.27,0,0,0,2-3.8,40.37,40.37,0,0,0-5,.4q-3,.4-6.6,1.2T922,911a60.43,60.43,0,0,0-6.4,2,15.87,15.87,0,0,0-5.2,2.2,23.78,23.78,0,0,0-2.8,2.2q-2.4,4-4.4,2.4a18,18,0,0,1-4.8-5.2,20.58,20.58,0,0,0-2-3.8,20.87,20.87,0,0,1-2-3.8,29.1,29.1,0,0,1-1.2-3.6,12,12,0,0,0-.8-2.4,8.48,8.48,0,0,1,.8-8,7.4,7.4,0,0,1,2.4-3.2,43.23,43.23,0,0,1,3.6-2.4,135.15,135.15,0,0,1,27.2-7.2q7.2-.8,13.6-1.6t12-1.6h2.8a18.23,18.23,0,0,0,3.6-.4,328.67,328.67,0,0,1,26.4-33.2q4-4,11.6-2,6.4,1.2,13.6,7.6,6.79,6.4,8,11.2,1.2,5.61-2,7.6l-5.6,7Z" transform="translate(-367.81 -729.63)" fill="none" stroke="#f2f2f2" stroke-linecap="round" stroke-linejoin="round" stroke-width="94"/><path d="M1081.2,985.8a4.63,4.63,0,0,1,4.2-1.2,12.5,12.5,0,0,1,5,2,10,10,0,0,1,3.6,4.2,5.63,5.63,0,0,1-.4,5.4,151.88,151.88,0,0,1-14.6,31,205.56,205.56,0,0,1-21.4,29,244.16,244.16,0,0,1-25.2,24.8,167.22,167.22,0,0,1-26,18.4,21.21,21.21,0,0,1-12.8,2.4A47.1,47.1,0,0,1,980,1098a69,69,0,0,1-12.4-7,73.12,73.12,0,0,1-9.2-7.6q-7.59-8-8.4-21.4a98.29,98.29,0,0,1,3-29,186.4,186.4,0,0,1,11.4-32.4,253.38,253.38,0,0,1,17-31.6,179.16,179.16,0,0,1,19.8-26q10.39-11.19,19.6-16.4a26.1,26.1,0,0,1,10.4-3,27.11,27.11,0,0,1,10,1.6,52.3,52.3,0,0,1,10.6,5.2q5.4,3.4,12.2,7.4,9.6,6,8.8,15.2,0,4.41-3.4,15.6a145.09,145.09,0,0,1-9.6,23.4,117,117,0,0,1-15.2,22.8q-9,10.61-20.2,14.2a37.52,37.52,0,0,1-14,1.2,48.48,48.48,0,0,1-13.2-4,80.91,80.91,0,0,0-4.4,11.8,108.37,108.37,0,0,0-3.6,15.8,67.3,67.3,0,0,0-.8,14.2q.39,6.21,4.8,7,6.39,1.2,18.2-6.8a165.91,165.91,0,0,0,24.6-21,297.33,297.33,0,0,0,25.2-29.4A195.9,195.9,0,0,0,1081.2,985.8Zm-40-29.6q-4,2.81-10.2,10.6t-12,16.6q-5.81,8.8-10,16.4t-4.2,9.6q7.2,1.2,13.4-4.4a58.69,58.69,0,0,0,11.2-14.2,88.87,88.87,0,0,0,8-18.2A93.57,93.57,0,0,0,1041.2,956.2Z" transform="translate(-367.81 -729.63)" fill="none" stroke="#f2f2f2" stroke-linecap="round" stroke-linejoin="round" stroke-width="94"/><path d="M1346.4,883.4q6,21.21,4.4,47.8a303.74,303.74,0,0,1-8.6,54.8,381.21,381.21,0,0,1-18.6,55.8,373.34,373.34,0,0,1-26,51,257,257,0,0,1-30.2,40.4q-15.81,17-31.4,23.8-10.41,4.39-23.6,3.2a96.62,96.62,0,0,1-25.4-5.8,87.51,87.51,0,0,1-22-12q-9.81-7.41-13.8-15.8-34-6.8-49.2-27t-16.8-47.4q-.81-20.4,5-43.6a243.82,243.82,0,0,1,16.8-46.2,316.08,316.08,0,0,1,59-84,246.56,246.56,0,0,1,36.4-30.6q18.8-12.79,37.6-17.6a73.16,73.16,0,0,1,34.4-1.4,108.39,108.39,0,0,1,32.6,11.8,104,104,0,0,1,25.6,19.8Q1343.19,871.8,1346.4,883.4Zm-149.6,254.4q17.6-9.21,34.2-27.2a258.9,258.9,0,0,0,30.6-41,349,349,0,0,0,24.8-49.4,372.41,372.41,0,0,0,17.2-52.6,281.54,281.54,0,0,0,7.8-50q1.39-23.79-3.4-42.2a61.37,61.37,0,0,0-5.2-12,21.63,21.63,0,0,0-9-8.6q-5.8-3-14.8-2.4t-22.2,6.2a184.34,184.34,0,0,0-49.2,32.8,274.91,274.91,0,0,0-41,47,290,290,0,0,0-29.4,53.8q-11.61,28-15,53.2t2.4,44.8q5.79,19.6,23,28.4-6.81-14-7.8-33a180.34,180.34,0,0,1,2.6-40,255.56,255.56,0,0,1,11.2-42.4,285,285,0,0,1,18-40.6,219.59,219.59,0,0,1,23-34.6q12.6-15.39,26.6-24.2a12.6,12.6,0,0,1,12.8-1,34.25,34.25,0,0,1,11.8,8.6,33.57,33.57,0,0,1,7,11.6q2,6-1.2,8.4-13.2,10-25,26.4a215.47,215.47,0,0,0-20.8,36,281.24,281.24,0,0,0-15,40.8,213.56,213.56,0,0,0-7.6,40.8,137.66,137.66,0,0,0,1.4,36Q1187.6,1127.81,1196.8,1137.8Z" transform="translate(-367.81 -729.63)" fill="none" stroke="#f2f2f2" stroke-linecap="round" stroke-linejoin="round" stroke-width="94"/><path d="M1478.79,983.8q5.6-.79,12.8,2.8A52.09,52.09,0,0,1,1502,993a8.18,8.18,0,0,1-2.2,1.8,2.38,2.38,0,0,1-1.4,0c-.54-.13-1.27-.33-2.2-.6a9.2,9.2,0,0,0-3.8,0q-6,1.2-17.6,7.8t-24,14.8q-12.4,8.21-23,16t-13.8,11.4q2,3.21,4,6t4,6q6,10.8,5.2,21.6a49.73,49.73,0,0,1-6.6,21,78.39,78.39,0,0,1-15.4,19,107.11,107.11,0,0,1-20.4,14.8,55.77,55.77,0,0,1-16.2,5.8,66,66,0,0,1-17.6,1.2,56.28,56.28,0,0,1-16-3.4,25.92,25.92,0,0,1-11.6-8.2,21.54,21.54,0,0,1-4.4-13q-.2-7.59,5.8-17.6a127.52,127.52,0,0,1,23.8-28.4q14.6-13.2,29.8-24.8-7.2-10.4-14.6-19.8a53.81,53.81,0,0,1-10.2-21,58.62,58.62,0,0,1-1-21,70,70,0,0,1,5.8-20.2,76.09,76.09,0,0,1,11.4-17.8,79.75,79.75,0,0,1,15.8-14.2,17.88,17.88,0,0,1,10.4-2.6,42.6,42.6,0,0,1,12,2.2,64.93,64.93,0,0,1,11,4.8,90.21,90.21,0,0,1,7.8,4.8q10.39-16.8,18.2-25t12.6-12.6q2.79-2,7.6,1a38.55,38.55,0,0,1,9,8,40.77,40.77,0,0,1,6.4,10.2q2.19,5.21-.6,7.2-6.4,4.41-15.2,14a201.86,201.86,0,0,0-16.4,20.4,108.59,108.59,0,0,0-11.8,21q-4.2,10.2-1.4,16.6c-1.34.54-3.14.4-5.4-.4a27.83,27.83,0,0,1-6.8-3.6,27,27,0,0,1-6.2-6.2,24.52,24.52,0,0,1-4-8.2,17,17,0,0,1,0-7.4,81.07,81.07,0,0,1,2-8.2,63.76,63.76,0,0,1,2.8-7.6c1.06-2.4,1.86-4.26,2.4-5.6q-7.6-.39-14.2,8.2a57.92,57.92,0,0,0-9.8,20.6,77.49,77.49,0,0,0-2.4,25q.79,13,8.4,21.8,7.59-4.8,17.8-12t20.6-14.2a199.59,199.59,0,0,1,20.6-12.2Q1471.19,985,1478.79,983.8Zm-129.2,130.8q5.6-.39,13.4-6.2a82,82,0,0,0,14.4-13.8,73.54,73.54,0,0,0,10.4-16.4q3.8-8.4,1.4-13.6-12.4,11.61-23.4,23.4A75.16,75.16,0,0,0,1349.59,1114.6Z" transform="translate(-367.81 -729.63)" fill="none" stroke="#f2f2f2" stroke-linecap="round" stroke-linejoin="round" stroke-width="94"/><path d="M1584.79,1039a4.18,4.18,0,0,1,4.6,2.2,12.54,12.54,0,0,1,1.4,6,13.68,13.68,0,0,1-1.4,6.2q-1.41,2.8-3.4,2.8a95.9,95.9,0,0,1-17.2.8,71.94,71.94,0,0,1-18.8-4q-2,4-5.2,11a130.5,130.5,0,0,1-7.8,14.4,106.46,106.46,0,0,1-10.8,14.4,48.77,48.77,0,0,1-13.8,11q-6.41,3.6-16.2,2.2a72.48,72.48,0,0,1-19.6-5.8,66.8,66.8,0,0,1-17.4-11.2q-7.59-6.8-9.6-14.8a53.42,53.42,0,0,1-1.2-23.6,135.91,135.91,0,0,1,6.4-25,124.73,124.73,0,0,1,10.6-22.4q6.21-10.2,11.8-15.4a29,29,0,0,1,4.4-3.6,28.32,28.32,0,0,0,4.4-3.6,119.14,119.14,0,0,1-2-17,30.85,30.85,0,0,1,4-16.6q3.6-6.39,15-8.2a55.3,55.3,0,0,1,24,1.8,56.63,56.63,0,0,1,23,13.2q10.4,9.6,12.4,25.6a96.66,96.66,0,0,1-.2,28.4q-2.2,13.61-5.4,28,3.6,2.4,11.8,3.6A47.1,47.1,0,0,0,1584.79,1039Zm-101.6,46q15.6-9.2,23-21.6a187.13,187.13,0,0,0,13-26.4,65.33,65.33,0,0,1-21.6-24.4q-2,2-5.2,10.8t-6.2,20.2a152,152,0,0,0-4.2,22.8Q1480.79,1077.8,1483.19,1085Zm42-70.8a46.17,46.17,0,0,0,3.2-13.4,87.42,87.42,0,0,0,.2-15.6,98.69,98.69,0,0,0-2-14,35.37,35.37,0,0,0-3-9q-6.4,8-5.8,22T1525.19,1014.2Z" transform="translate(-367.81 -729.63)" fill="none" stroke="#f2f2f2" stroke-linecap="round" stroke-linejoin="round" stroke-width="94"/><path d="M477.21,1027.4a77.78,77.78,0,0,0-13.6,15.2,108.53,108.53,0,0,0-11.4,20.4,87.78,87.78,0,0,0-6.2,21.4q-1.61,10.61,1.4,18.4T459,1114q8.6,3.4,25-.2a156.35,156.35,0,0,0,33.2-12.8,190.42,190.42,0,0,0,31.6-20.2,128.17,128.17,0,0,0,23.6-23.8q9.2-12.39,9.2-23.2a27,27,0,0,0-7.8-19.6,77.67,77.67,0,0,0-19.6-14.2,197.29,197.29,0,0,0-26-11.2Q514,983.81,501,978a115.07,115.07,0,0,1-23-13.4,35.43,35.43,0,0,1-13.2-18.8q-4.41-15.19,3.4-34.6a150.12,150.12,0,0,1,23-38.2,202.1,202.1,0,0,1,35.6-34.2q20.4-15.39,41-22.2t38.8-2.8q18.2,4,29.8,24a144.22,144.22,0,0,1,7.4-13.6q4.59-7.59,9-14.8t8.6-12.8q4.2-5.6,6.6-7.2,3.6-2.4,11.6.2a55.23,55.23,0,0,1,15,7.6,40.38,40.38,0,0,1,10.8,11q3.8,6-1,9.6-7.6,6.81-17.2,19.4a328.83,328.83,0,0,0-19,28q-9.4,15.4-17.8,32a301.08,301.08,0,0,0-13.8,31.2q-5.4,14.61-6.8,25.6t3,15.4q-4,3.6-10.4,2.6a27.13,27.13,0,0,1-12.4-5.6,39.14,39.14,0,0,1-10.2-12,25.93,25.93,0,0,1-3-16.6,117.18,117.18,0,0,1,5.8-24.8q4.59-13.59,9-27.4a202,202,0,0,0,6.6-26.4q2.19-12.6-1.4-22.2-2-5.19-10.6-3t-20.6,9.6a222.31,222.31,0,0,0-25.4,18.6,263.66,263.66,0,0,0-25,23.8,184.27,184.27,0,0,0-19.8,25.4q-8.2,12.81-9.4,22.8t7.4,16.6a113,113,0,0,0,22.4,12.8q13.8,6.21,30.2,12.8a159.12,159.12,0,0,1,30.2,16,79.76,79.76,0,0,1,22.6,23.2q8.79,13.8,7.6,34.2-.4,10-7.4,21.6a123.29,123.29,0,0,1-18.6,23.2,209,209,0,0,1-26.8,22.4,246.56,246.56,0,0,1-32.4,19.4,235.35,235.35,0,0,1-35.2,14.2,154.34,154.34,0,0,1-34.8,6.8q-14.4.8-24.4-1.2a54.18,54.18,0,0,1-16.8-6,31.21,31.21,0,0,1-11.6-12.8,39.22,39.22,0,0,1-3.6-17,76.13,76.13,0,0,1,2.8-19.8,130.44,130.44,0,0,1,7.6-20.8,211.36,211.36,0,0,1,19-32.8,183,183,0,0,1,22.2-26.4,6.68,6.68,0,0,1,4.8-1.4,9.5,9.5,0,0,1,4.8,1.6,6.43,6.43,0,0,1,2.6,3.4A2.59,2.59,0,0,1,477.21,1027.4Z" transform="translate(-367.81 -729.63)" fill="#f97316"/><path d="M781.21,1039a4.18,4.18,0,0,1,4.6,2.2,12.54,12.54,0,0,1,1.4,6,13.68,13.68,0,0,1-1.4,6.2q-1.41,2.8-3.4,2.8a95.9,95.9,0,0,1-17.2.8,71.94,71.94,0,0,1-18.8-4q-2,4-5.2,11a130.5,130.5,0,0,1-7.8,14.4,106.46,106.46,0,0,1-10.8,14.4,48.77,48.77,0,0,1-13.8,11q-6.4,3.6-16.2,2.2a72.48,72.48,0,0,1-19.6-5.8,66.8,66.8,0,0,1-17.4-11.2q-7.61-6.8-9.6-14.8a53.42,53.42,0,0,1-1.2-23.6,134.33,134.33,0,0,1,6.4-25,124.05,124.05,0,0,1,10.6-22.4q6.2-10.2,11.8-15.4a29,29,0,0,1,4.4-3.6,28.32,28.32,0,0,0,4.4-3.6,119.14,119.14,0,0,1-2-17,30.85,30.85,0,0,1,4-16.6q3.6-6.39,15-8.2a55.3,55.3,0,0,1,24,1.8,56.63,56.63,0,0,1,23,13.2q10.4,9.6,12.4,25.6a96.66,96.66,0,0,1-.2,28.4q-2.21,13.61-5.4,28,3.6,2.4,11.8,3.6A47.1,47.1,0,0,0,781.21,1039Zm-101.6,46q15.6-9.2,23-21.6a187.13,187.13,0,0,0,13-26.4,65.33,65.33,0,0,1-21.6-24.4q-2,2-5.2,10.8t-6.2,20.2a152,152,0,0,0-4.2,22.8Q677.21,1077.8,679.61,1085Zm42-70.8a46.17,46.17,0,0,0,3.2-13.4,87.42,87.42,0,0,0,.2-15.6,98.69,98.69,0,0,0-2-14,35.37,35.37,0,0,0-3-9q-6.4,8-5.8,22T721.61,1014.2Z" transform="translate(-367.81 -729.63)" fill="#f97316"/><path d="M881.21,1021q.39,3.6,1.8,5a8.91,8.91,0,0,0,2.8,2,20.58,20.58,0,0,1,2.4,1.2c.66.4.86,1.27.6,2.6q-.81,3.21-7,3.6a47.44,47.44,0,0,1-13.4-1.2,60.65,60.65,0,0,1-13.4-4.6q-6.21-3-7-7a43.26,43.26,0,0,1-1.6-14.6q.39-7.8,0-15.8a271.76,271.76,0,0,0-36.4,50.2q-15.21,27-24,63-1.2,4.41-6.6,4.6a27.77,27.77,0,0,1-11.4-2.2,34,34,0,0,1-10.4-6.4q-4.4-4-3.6-8.4a432.16,432.16,0,0,1,10.2-45.2q6.6-23.6,15.4-46.6t18.8-43.8q10-20.79,19.6-37.2a8.35,8.35,0,0,1,5.6-4.4,14.92,14.92,0,0,1,7.6.4q9.19,3.21,13,7.8t1,10.6Q840,945.81,834,958t-12.4,27.8q6-8.4,10.8-15.6,4.4-6,7.8-11.6t4.2-6.8q3.6-5.59,6-6.2c1.6-.4,4.26.2,8,1.8q11.19,4.41,16.8,6.4t7.6,5.2q2,3.21,1.2,9.2t-2,18.4A149.65,149.65,0,0,0,881.21,1021Z" transform="translate(-367.81 -729.63)" fill="#f97316"/><path d="M1006.4,879.8q16.8,3.21,26,6,10,3.6,14,8.8a67.62,67.62,0,0,1,5.2,10c.53,2.14,1.07,4.27,1.6,6.4s.93,4.14,1.2,6q0,6-3.6,6.8-6-8-24-12.8-27.19-6-41.2-5.2l-6.4,9.6q-3.19,4.8-6.4,9.6a511.47,511.47,0,0,0-33.6,68.8,543.51,543.51,0,0,0-22,70.4q-7.2,34-4.4,54.8,2.81,22,18.4,23.6-6,5.19-17.6,3.6-10.4-1.2-21.6-12.4-11.19-10.4-14-31.2-1.59-15.6,2.2-36.6a364.91,364.91,0,0,1,12.6-47.8q8.81-26.79,19.8-52.4t23.8-50.4a21.2,21.2,0,0,1,2-3.8,20.27,20.27,0,0,0,2-3.8,40.37,40.37,0,0,0-5,.4q-3,.4-6.6,1.2T922,911a60.43,60.43,0,0,0-6.4,2,15.87,15.87,0,0,0-5.2,2.2,23.78,23.78,0,0,0-2.8,2.2q-2.4,4-4.4,2.4a18,18,0,0,1-4.8-5.2,20.58,20.58,0,0,0-2-3.8,20.87,20.87,0,0,1-2-3.8,29.1,29.1,0,0,1-1.2-3.6,12,12,0,0,0-.8-2.4,8.48,8.48,0,0,1,.8-8,7.4,7.4,0,0,1,2.4-3.2,43.23,43.23,0,0,1,3.6-2.4,135.15,135.15,0,0,1,27.2-7.2q7.2-.8,13.6-1.6t12-1.6h2.8a18.23,18.23,0,0,0,3.6-.4,328.67,328.67,0,0,1,26.4-33.2q4-4,11.6-2,6.4,1.2,13.6,7.6,6.79,6.4,8,11.2,1.2,5.61-2,7.6l-5.6,7Z" transform="translate(-367.81 -729.63)" fill="#f97316"/><path d="M1081.2,985.8a4.63,4.63,0,0,1,4.2-1.2,12.5,12.5,0,0,1,5,2,10,10,0,0,1,3.6,4.2,5.63,5.63,0,0,1-.4,5.4,151.88,151.88,0,0,1-14.6,31,205.56,205.56,0,0,1-21.4,29,244.16,244.16,0,0,1-25.2,24.8,167.22,167.22,0,0,1-26,18.4,21.21,21.21,0,0,1-12.8,2.4A47.1,47.1,0,0,1,980,1098a69,69,0,0,1-12.4-7,73.12,73.12,0,0,1-9.2-7.6q-7.59-8-8.4-21.4a98.29,98.29,0,0,1,3-29,186.4,186.4,0,0,1,11.4-32.4,253.38,253.38,0,0,1,17-31.6,179.16,179.16,0,0,1,19.8-26q10.39-11.19,19.6-16.4a26.1,26.1,0,0,1,10.4-3,27.11,27.11,0,0,1,10,1.6,52.3,52.3,0,0,1,10.6,5.2q5.4,3.4,12.2,7.4,9.6,6,8.8,15.2,0,4.41-3.4,15.6a145.09,145.09,0,0,1-9.6,23.4,117,117,0,0,1-15.2,22.8q-9,10.61-20.2,14.2a37.52,37.52,0,0,1-14,1.2,48.48,48.48,0,0,1-13.2-4,80.91,80.91,0,0,0-4.4,11.8,108.37,108.37,0,0,0-3.6,15.8,67.3,67.3,0,0,0-.8,14.2q.39,6.21,4.8,7,6.39,1.2,18.2-6.8a165.91,165.91,0,0,0,24.6-21,297.33,297.33,0,0,0,25.2-29.4A195.9,195.9,0,0,0,1081.2,985.8Zm-40-29.6q-4,2.81-10.2,10.6t-12,16.6q-5.81,8.8-10,16.4t-4.2,9.6q7.2,1.2,13.4-4.4a58.69,58.69,0,0,0,11.2-14.2,88.87,88.87,0,0,0,8-18.2A93.57,93.57,0,0,0,1041.2,956.2Z" transform="translate(-367.81 -729.63)" fill="#f97316"/><path d="M1346.4,883.4q6,21.21,4.4,47.8a303.74,303.74,0,0,1-8.6,54.8,381.21,381.21,0,0,1-18.6,55.8,373.34,373.34,0,0,1-26,51,257,257,0,0,1-30.2,40.4q-15.81,17-31.4,23.8-10.41,4.39-23.6,3.2a96.62,96.62,0,0,1-25.4-5.8,87.51,87.51,0,0,1-22-12q-9.81-7.41-13.8-15.8-34-6.8-49.2-27t-16.8-47.4q-.81-20.4,5-43.6a243.82,243.82,0,0,1,16.8-46.2,316.08,316.08,0,0,1,59-84,246.56,246.56,0,0,1,36.4-30.6q18.8-12.79,37.6-17.6a73.16,73.16,0,0,1,34.4-1.4,108.39,108.39,0,0,1,32.6,11.8,104,104,0,0,1,25.6,19.8Q1343.19,871.8,1346.4,883.4Zm-149.6,254.4q17.6-9.21,34.2-27.2a258.9,258.9,0,0,0,30.6-41,349,349,0,0,0,24.8-49.4,372.41,372.41,0,0,0,17.2-52.6,281.54,281.54,0,0,0,7.8-50q1.39-23.79-3.4-42.2a61.37,61.37,0,0,0-5.2-12,21.63,21.63,0,0,0-9-8.6q-5.8-3-14.8-2.4t-22.2,6.2a184.34,184.34,0,0,0-49.2,32.8,274.91,274.91,0,0,0-41,47,290,290,0,0,0-29.4,53.8q-11.61,28-15,53.2t2.4,44.8q5.79,19.6,23,28.4-6.81-14-7.8-33a180.34,180.34,0,0,1,2.6-40,255.56,255.56,0,0,1,11.2-42.4,285,285,0,0,1,18-40.6,219.59,219.59,0,0,1,23-34.6q12.6-15.39,26.6-24.2a12.6,12.6,0,0,1,12.8-1,34.25,34.25,0,0,1,11.8,8.6,33.57,33.57,0,0,1,7,11.6q2,6-1.2,8.4-13.2,10-25,26.4a215.47,215.47,0,0,0-20.8,36,281.24,281.24,0,0,0-15,40.8,213.56,213.56,0,0,0-7.6,40.8,137.66,137.66,0,0,0,1.4,36Q1187.6,1127.81,1196.8,1137.8Z" transform="translate(-367.81 -729.63)" fill="#f97316"/><path d="M1478.79,983.8q5.6-.79,12.8,2.8A52.09,52.09,0,0,1,1502,993a8.18,8.18,0,0,1-2.2,1.8,2.38,2.38,0,0,1-1.4,0c-.54-.13-1.27-.33-2.2-.6a9.2,9.2,0,0,0-3.8,0q-6,1.2-17.6,7.8t-24,14.8q-12.4,8.21-23,16t-13.8,11.4q2,3.21,4,6t4,6q6,10.8,5.2,21.6a49.73,49.73,0,0,1-6.6,21,78.39,78.39,0,0,1-15.4,19,107.11,107.11,0,0,1-20.4,14.8,55.77,55.77,0,0,1-16.2,5.8,66,66,0,0,1-17.6,1.2,56.28,56.28,0,0,1-16-3.4,25.92,25.92,0,0,1-11.6-8.2,21.54,21.54,0,0,1-4.4-13q-.2-7.59,5.8-17.6a127.52,127.52,0,0,1,23.8-28.4q14.6-13.2,29.8-24.8-7.2-10.4-14.6-19.8a53.81,53.81,0,0,1-10.2-21,58.62,58.62,0,0,1-1-21,70,70,0,0,1,5.8-20.2,76.09,76.09,0,0,1,11.4-17.8,79.75,79.75,0,0,1,15.8-14.2,17.88,17.88,0,0,1,10.4-2.6,42.6,42.6,0,0,1,12,2.2,64.93,64.93,0,0,1,11,4.8,90.21,90.21,0,0,1,7.8,4.8q10.39-16.8,18.2-25t12.6-12.6q2.79-2,7.6,1a38.55,38.55,0,0,1,9,8,40.77,40.77,0,0,1,6.4,10.2q2.19,5.21-.6,7.2-6.4,4.41-15.2,14a201.86,201.86,0,0,0-16.4,20.4,108.59,108.59,0,0,0-11.8,21q-4.2,10.2-1.4,16.6c-1.34.54-3.14.4-5.4-.4a27.83,27.83,0,0,1-6.8-3.6,27,27,0,0,1-6.2-6.2,24.52,24.52,0,0,1-4-8.2,17,17,0,0,1,0-7.4,81.07,81.07,0,0,1,2-8.2,63.76,63.76,0,0,1,2.8-7.6c1.06-2.4,1.86-4.26,2.4-5.6q-7.6-.39-14.2,8.2a57.92,57.92,0,0,0-9.8,20.6,77.49,77.49,0,0,0-2.4,25q.79,13,8.4,21.8,7.59-4.8,17.8-12t20.6-14.2a199.59,199.59,0,0,1,20.6-12.2Q1471.19,985,1478.79,983.8Zm-129.2,130.8q5.6-.39,13.4-6.2a82,82,0,0,0,14.4-13.8,73.54,73.54,0,0,0,10.4-16.4q3.8-8.4,1.4-13.6-12.4,11.61-23.4,23.4A75.16,75.16,0,0,0,1349.59,1114.6Z" transform="translate(-367.81 -729.63)" fill="#f97316"/><path d="M1584.79,1039a4.18,4.18,0,0,1,4.6,2.2,12.54,12.54,0,0,1,1.4,6,13.68,13.68,0,0,1-1.4,6.2q-1.41,2.8-3.4,2.8a95.9,95.9,0,0,1-17.2.8,71.94,71.94,0,0,1-18.8-4q-2,4-5.2,11a130.5,130.5,0,0,1-7.8,14.4,106.46,106.46,0,0,1-10.8,14.4,48.77,48.77,0,0,1-13.8,11q-6.41,3.6-16.2,2.2a72.48,72.48,0,0,1-19.6-5.8,66.8,66.8,0,0,1-17.4-11.2q-7.59-6.8-9.6-14.8a53.42,53.42,0,0,1-1.2-23.6,135.91,135.91,0,0,1,6.4-25,124.73,124.73,0,0,1,10.6-22.4q6.21-10.2,11.8-15.4a29,29,0,0,1,4.4-3.6,28.32,28.32,0,0,0,4.4-3.6,119.14,119.14,0,0,1-2-17,30.85,30.85,0,0,1,4-16.6q3.6-6.39,15-8.2a55.3,55.3,0,0,1,24,1.8,56.63,56.63,0,0,1,23,13.2q10.4,9.6,12.4,25.6a96.66,96.66,0,0,1-.2,28.4q-2.2,13.61-5.4,28,3.6,2.4,11.8,3.6A47.1,47.1,0,0,0,1584.79,1039Zm-101.6,46q15.6-9.2,23-21.6a187.13,187.13,0,0,0,13-26.4,65.33,65.33,0,0,1-21.6-24.4q-2,2-5.2,10.8t-6.2,20.2a152,152,0,0,0-4.2,22.8Q1480.79,1077.8,1483.19,1085Zm42-70.8a46.17,46.17,0,0,0,3.2-13.4,87.42,87.42,0,0,0,.2-15.6,98.69,98.69,0,0,0-2-14,35.37,35.37,0,0,0-3-9q-6.4,8-5.8,22T1525.19,1014.2Z" transform="translate(-367.81 -729.63)" fill="#f97316"/><path d="M463.14,825.41c-3.46-.91-6.91-1.8-10.36-2.75-3.72-1-7.67-1.6-11.08-3.27-8.13-4-10-14.62-4.35-22.33a23.67,23.67,0,0,1,13-8.93A82.19,82.19,0,0,0,467,781a53.93,53.93,0,0,1,8-3.66,15.32,15.32,0,0,1,19.37,9.33,48.34,48.34,0,0,1,2,10.32,62.67,62.67,0,0,0,3.72,15.77,24.07,24.07,0,0,1,.94,16.14c-3.36,11.06-15.62,14.62-25,7.25-3.14-2.48-6.09-5.21-9.19-7.75-1.19-1-2.55-1.74-3.84-2.6Z" transform="translate(-367.81 -729.63)" fill="none" stroke="#fff" stroke-linecap="round" stroke-linejoin="round" stroke-width="14.29"/><path d="M497.5,765.29c3.34-6.24,7.44-10.33,13.47-12.07,8.58-2.48,15.15,3.1,14.21,12-.81,7.67-7.14,15.34-14.52,17.6-9.05,2.77-15.92-3.11-14.5-12.49A38.43,38.43,0,0,1,497.5,765.29Z" transform="translate(-367.81 -729.63)" fill="none" stroke="#fff" stroke-linecap="round" stroke-linejoin="round" stroke-width="14.29"/><path d="M469.72,747.51c2.29-4.74,4.48-7.35,7.54-9.15a9.85,9.85,0,0,1,14.14,3.75c4.69,8.14.9,21.43-7.38,25.91-5.35,2.89-11,1.33-13.88-4A18.47,18.47,0,0,1,469.72,747.51Z" transform="translate(-367.81 -729.63)" fill="none" stroke="#fff" stroke-linecap="round" stroke-linejoin="round" stroke-width="14.29"/><path d="M508.07,795.85c3.17-5.46,7.68-9,14-9.88,4.22-.6,8.09.35,10.69,4s2.24,7.62.33,11.41a17.89,17.89,0,0,1-13.55,10c-4.26.73-8.2-.08-11-3.74S506.39,799.83,508.07,795.85Z" transform="translate(-367.81 -729.63)" fill="none" stroke="#fff" stroke-linecap="round" stroke-linejoin="round" stroke-width="14.29"/><path d="M460.36,771.66c-.53.86-.95,1.68-1.5,2.41-5.11,6.89-13.86,6.2-17.55-1.54-3.2-6.73-2.56-13.33,2.06-19.24s12.52-5.39,16.39,1.07C463.14,760,462.93,765.85,460.36,771.66Z" transform="translate(-367.81 -729.63)" fill="none" stroke="#fff" stroke-linecap="round" stroke-linejoin="round" stroke-width="14.29"/><path d="M463.14,825.41c-3.46-.91-6.91-1.8-10.36-2.75-3.72-1-7.67-1.6-11.08-3.27-8.13-4-10-14.62-4.35-22.33a23.67,23.67,0,0,1,13-8.93A82.19,82.19,0,0,0,467,781a53.93,53.93,0,0,1,8-3.66,15.32,15.32,0,0,1,19.37,9.33,48.34,48.34,0,0,1,2,10.32,62.67,62.67,0,0,0,3.72,15.77,24.07,24.07,0,0,1,.94,16.14c-3.36,11.06-15.62,14.62-25,7.25-3.14-2.48-6.09-5.21-9.19-7.75-1.19-1-2.55-1.74-3.84-2.6Z" transform="translate(-367.81 -729.63)" fill="#f97316"/><path d="M497.5,765.29c3.34-6.24,7.44-10.33,13.47-12.07,8.58-2.48,15.15,3.1,14.21,12-.81,7.67-7.14,15.34-14.52,17.6-9.05,2.77-15.92-3.11-14.5-12.49A38.43,38.43,0,0,1,497.5,765.29Z" transform="translate(-367.81 -729.63)" fill="#f97316"/><path d="M469.72,747.51c2.29-4.74,4.48-7.35,7.54-9.15a9.85,9.85,0,0,1,14.14,3.75c4.69,8.14.9,21.43-7.38,25.91-5.35,2.89-11,1.33-13.88-4A18.47,18.47,0,0,1,469.72,747.51Z" transform="translate(-367.81 -729.63)" fill="#f97316"/><path d="M508.07,795.85c3.17-5.46,7.68-9,14-9.88,4.22-.6,8.09.35,10.69,4s2.24,7.62.33,11.41a17.89,17.89,0,0,1-13.55,10c-4.26.73-8.2-.08-11-3.74S506.39,799.83,508.07,795.85Z" transform="translate(-367.81 -729.63)" fill="#f97316"/><path d="M460.36,771.66c-.53.86-.95,1.68-1.5,2.41-5.11,6.89-13.86,6.2-17.55-1.54-3.2-6.73-2.56-13.33,2.06-19.24s12.52-5.39,16.39,1.07C463.14,760,462.93,765.85,460.36,771.66Z" transform="translate(-367.81 -729.63)" fill="#f97316"/><path d="M606.14,1197.41c-3.46-.91-6.91-1.8-10.36-2.75-3.72-1-7.67-1.6-11.08-3.27-8.13-4-10-14.62-4.35-22.33a23.67,23.67,0,0,1,13-8.93A82.19,82.19,0,0,0,610,1153a53.93,53.93,0,0,1,8-3.66,15.32,15.32,0,0,1,19.37,9.33,48.34,48.34,0,0,1,2,10.32,62.67,62.67,0,0,0,3.72,15.77,24.07,24.07,0,0,1,.94,16.14c-3.36,11.06-15.62,14.62-25,7.25-3.14-2.48-6.09-5.21-9.19-7.75-1.19-1-2.55-1.74-3.84-2.6Z" transform="translate(-367.81 -729.63)" fill="none" stroke="#fff" stroke-linecap="round" stroke-linejoin="round" stroke-width="14.29"/><path d="M640.5,1137.29c3.34-6.24,7.44-10.33,13.47-12.07,8.58-2.48,15.15,3.1,14.21,12-.81,7.67-7.14,15.34-14.52,17.6-9,2.77-15.92-3.11-14.5-12.49A38.43,38.43,0,0,1,640.5,1137.29Z" transform="translate(-367.81 -729.63)" fill="none" stroke="#fff" stroke-linecap="round" stroke-linejoin="round" stroke-width="14.29"/><path d="M612.72,1119.51c2.29-4.74,4.48-7.35,7.54-9.15a9.85,9.85,0,0,1,14.14,3.75c4.69,8.14.9,21.43-7.38,25.91-5.35,2.89-11,1.33-13.88-4A18.47,18.47,0,0,1,612.72,1119.51Z" transform="translate(-367.81 -729.63)" fill="none" stroke="#fff" stroke-linecap="round" stroke-linejoin="round" stroke-width="14.29"/><path d="M651.07,1167.85c3.17-5.46,7.68-9,14-9.88,4.22-.6,8.09.35,10.69,4s2.24,7.62.33,11.41a17.89,17.89,0,0,1-13.55,10c-4.26.73-8.2-.08-11-3.74S649.39,1171.83,651.07,1167.85Z" transform="translate(-367.81 -729.63)" fill="none" stroke="#fff" stroke-linecap="round" stroke-linejoin="round" stroke-width="14.29"/><path d="M603.36,1143.66c-.53.86-1,1.68-1.5,2.41-5.11,6.89-13.86,6.2-17.55-1.54-3.2-6.73-2.56-13.33,2.06-19.24s12.52-5.39,16.39,1.07C606.14,1132,605.93,1137.85,603.36,1143.66Z" transform="translate(-367.81 -729.63)" fill="none" stroke="#fff" stroke-linecap="round" stroke-linejoin="round" stroke-width="14.29"/><path d="M606.14,1197.41c-3.46-.91-6.91-1.8-10.36-2.75-3.72-1-7.67-1.6-11.08-3.27-8.13-4-10-14.62-4.35-22.33a23.67,23.67,0,0,1,13-8.93A82.19,82.19,0,0,0,610,1153a53.93,53.93,0,0,1,8-3.66,15.32,15.32,0,0,1,19.37,9.33,48.34,48.34,0,0,1,2,10.32,62.67,62.67,0,0,0,3.72,15.77,24.07,24.07,0,0,1,.94,16.14c-3.36,11.06-15.62,14.62-25,7.25-3.14-2.48-6.09-5.21-9.19-7.75-1.19-1-2.55-1.74-3.84-2.6Z" transform="translate(-367.81 -729.63)" fill="#f97316"/><path d="M640.5,1137.29c3.34-6.24,7.44-10.33,13.47-12.07,8.58-2.48,15.15,3.1,14.21,12-.81,7.67-7.14,15.34-14.52,17.6-9,2.77-15.92-3.11-14.5-12.49A38.43,38.43,0,0,1,640.5,1137.29Z" transform="translate(-367.81 -729.63)" fill="#f97316"/><path d="M612.72,1119.51c2.29-4.74,4.48-7.35,7.54-9.15a9.85,9.85,0,0,1,14.14,3.75c4.69,8.14.9,21.43-7.38,25.91-5.35,2.89-11,1.33-13.88-4A18.47,18.47,0,0,1,612.72,1119.51Z" transform="translate(-367.81 -729.63)" fill="#f97316"/><path d="M651.07,1167.85c3.17-5.46,7.68-9,14-9.88,4.22-.6,8.09.35,10.69,4s2.24,7.62.33,11.41a17.89,17.89,0,0,1-13.55,10c-4.26.73-8.2-.08-11-3.74S649.39,1171.83,651.07,1167.85Z" transform="translate(-367.81 -729.63)" fill="#f97316"/><path d="M603.36,1143.66c-.53.86-1,1.68-1.5,2.41-5.11,6.89-13.86,6.2-17.55-1.54-3.2-6.73-2.56-13.33,2.06-19.24s12.52-5.39,16.39,1.07C606.14,1132,605.93,1137.85,603.36,1143.66Z" transform="translate(-367.81 -729.63)" fill="#f97316"/><path d="M1389.14,889.41c-3.46-.91-6.91-1.8-10.36-2.75-3.72-1-7.67-1.6-11.08-3.27-8.13-4-10-14.62-4.35-22.33a23.67,23.67,0,0,1,13-8.93A82.19,82.19,0,0,0,1393,845a53.93,53.93,0,0,1,8-3.66,15.32,15.32,0,0,1,19.37,9.33,48.34,48.34,0,0,1,2,10.32,62.67,62.67,0,0,0,3.72,15.77,24.07,24.07,0,0,1,.94,16.14c-3.36,11.06-15.62,14.62-25,7.25-3.14-2.48-6.09-5.21-9.19-7.75-1.19-1-2.55-1.74-3.84-2.6Z" transform="translate(-367.81 -729.63)" fill="none" stroke="#fff" stroke-linecap="round" stroke-linejoin="round" stroke-width="14.29"/><path d="M1423.5,829.29c3.34-6.24,7.44-10.33,13.47-12.07,8.58-2.48,15.15,3.1,14.21,12-.81,7.67-7.14,15.34-14.52,17.6-9.05,2.77-15.92-3.11-14.5-12.49A38.43,38.43,0,0,1,1423.5,829.29Z" transform="translate(-367.81 -729.63)" fill="none" stroke="#fff" stroke-linecap="round" stroke-linejoin="round" stroke-width="14.29"/><path d="M1395.72,811.51c2.29-4.74,4.48-7.35,7.54-9.15a9.85,9.85,0,0,1,14.14,3.75c4.69,8.14.9,21.43-7.38,25.91-5.35,2.89-11,1.33-13.88-4A18.47,18.47,0,0,1,1395.72,811.51Z" transform="translate(-367.81 -729.63)" fill="none" stroke="#fff" stroke-linecap="round" stroke-linejoin="round" stroke-width="14.29"/><path d="M1434.07,859.85c3.17-5.46,7.68-9,14-9.88,4.22-.6,8.09.35,10.69,4s2.24,7.62.33,11.41a17.89,17.89,0,0,1-13.55,10c-4.26.73-8.2-.08-11-3.74S1432.39,863.83,1434.07,859.85Z" transform="translate(-367.81 -729.63)" fill="none" stroke="#fff" stroke-linecap="round" stroke-linejoin="round" stroke-width="14.29"/><path d="M1386.36,835.66c-.53.86-.95,1.68-1.5,2.41-5.11,6.89-13.86,6.2-17.55-1.54-3.2-6.73-2.56-13.33,2.06-19.24s12.52-5.39,16.39,1.07C1389.14,824,1388.93,829.85,1386.36,835.66Z" transform="translate(-367.81 -729.63)" fill="none" stroke="#fff" stroke-linecap="round" stroke-linejoin="round" stroke-width="14.29"/><path d="M1389.14,889.41c-3.46-.91-6.91-1.8-10.36-2.75-3.72-1-7.67-1.6-11.08-3.27-8.13-4-10-14.62-4.35-22.33a23.67,23.67,0,0,1,13-8.93A82.19,82.19,0,0,0,1393,845a53.93,53.93,0,0,1,8-3.66,15.32,15.32,0,0,1,19.37,9.33,48.34,48.34,0,0,1,2,10.32,62.67,62.67,0,0,0,3.72,15.77,24.07,24.07,0,0,1,.94,16.14c-3.36,11.06-15.62,14.62-25,7.25-3.14-2.48-6.09-5.21-9.19-7.75-1.19-1-2.55-1.74-3.84-2.6Z" transform="translate(-367.81 -729.63)" fill="#f97316"/><path d="M1423.5,829.29c3.34-6.24,7.44-10.33,13.47-12.07,8.58-2.48,15.15,3.1,14.21,12-.81,7.67-7.14,15.34-14.52,17.6-9.05,2.77-15.92-3.11-14.5-12.49A38.43,38.43,0,0,1,1423.5,829.29Z" transform="translate(-367.81 -729.63)" fill="#f97316"/><path d="M1395.72,811.51c2.29-4.74,4.48-7.35,7.54-9.15a9.85,9.85,0,0,1,14.14,3.75c4.69,8.14.9,21.43-7.38,25.91-5.35,2.89-11,1.33-13.88-4A18.47,18.47,0,0,1,1395.72,811.51Z" transform="translate(-367.81 -729.63)" fill="#f97316"/><path d="M1434.07,859.85c3.17-5.46,7.68-9,14-9.88,4.22-.6,8.09.35,10.69,4s2.24,7.62.33,11.41a17.89,17.89,0,0,1-13.55,10c-4.26.73-8.2-.08-11-3.74S1432.39,863.83,1434.07,859.85Z" transform="translate(-367.81 -729.63)" fill="#f97316"/><path d="M1386.36,835.66c-.53.86-.95,1.68-1.5,2.41-5.11,6.89-13.86,6.2-17.55-1.54-3.2-6.73-2.56-13.33,2.06-19.24s12.52-5.39,16.39,1.07C1389.14,824,1388.93,829.85,1386.36,835.66Z" transform="translate(-367.81 -729.63)" fill="#f97316"/><path d="M1439.14,1197.41c-3.46-.91-6.91-1.8-10.36-2.75-3.72-1-7.67-1.6-11.08-3.27-8.13-4-10-14.62-4.35-22.33a23.67,23.67,0,0,1,13-8.93A82.19,82.19,0,0,0,1443,1153a53.93,53.93,0,0,1,8-3.66,15.32,15.32,0,0,1,19.37,9.33,48.34,48.34,0,0,1,2,10.32,62.67,62.67,0,0,0,3.72,15.77,24.07,24.07,0,0,1,.94,16.14c-3.36,11.06-15.62,14.62-25,7.25-3.14-2.48-6.09-5.21-9.19-7.75-1.19-1-2.55-1.74-3.84-2.6Z" transform="translate(-367.81 -729.63)" fill="none" stroke="#fff" stroke-linecap="round" stroke-linejoin="round" stroke-width="14.29"/><path d="M1473.5,1137.29c3.34-6.24,7.44-10.33,13.47-12.07,8.58-2.48,15.15,3.1,14.21,12-.81,7.67-7.14,15.34-14.52,17.6-9.05,2.77-15.92-3.11-14.5-12.49A38.43,38.43,0,0,1,1473.5,1137.29Z" transform="translate(-367.81 -729.63)" fill="none" stroke="#fff" stroke-linecap="round" stroke-linejoin="round" stroke-width="14.29"/><path d="M1445.72,1119.51c2.29-4.74,4.48-7.35,7.54-9.15a9.85,9.85,0,0,1,14.14,3.75c4.69,8.14.9,21.43-7.38,25.91-5.35,2.89-11,1.33-13.88-4A18.47,18.47,0,0,1,1445.72,1119.51Z" transform="translate(-367.81 -729.63)" fill="none" stroke="#fff" stroke-linecap="round" stroke-linejoin="round" stroke-width="14.29"/><path d="M1484.07,1167.85c3.17-5.46,7.68-9,14-9.88,4.22-.6,8.09.35,10.69,4s2.24,7.62.33,11.41a17.89,17.89,0,0,1-13.55,10c-4.26.73-8.2-.08-11-3.74S1482.39,1171.83,1484.07,1167.85Z" transform="translate(-367.81 -729.63)" fill="none" stroke="#fff" stroke-linecap="round" stroke-linejoin="round" stroke-width="14.29"/><path d="M1436.36,1143.66c-.53.86-.95,1.68-1.5,2.41-5.11,6.89-13.86,6.2-17.55-1.54-3.2-6.73-2.56-13.33,2.06-19.24s12.52-5.39,16.39,1.07C1439.14,1132,1438.93,1137.85,1436.36,1143.66Z" transform="translate(-367.81 -729.63)" fill="none" stroke="#fff" stroke-linecap="round" stroke-linejoin="round" stroke-width="14.29"/><path d="M1439.14,1197.41c-3.46-.91-6.91-1.8-10.36-2.75-3.72-1-7.67-1.6-11.08-3.27-8.13-4-10-14.62-4.35-22.33a23.67,23.67,0,0,1,13-8.93A82.19,82.19,0,0,0,1443,1153a53.93,53.93,0,0,1,8-3.66,15.32,15.32,0,0,1,19.37,9.33,48.34,48.34,0,0,1,2,10.32,62.67,62.67,0,0,0,3.72,15.77,24.07,24.07,0,0,1,.94,16.14c-3.36,11.06-15.62,14.62-25,7.25-3.14-2.48-6.09-5.21-9.19-7.75-1.19-1-2.55-1.74-3.84-2.6Z" transform="translate(-367.81 -729.63)" fill="#f97316"/><path d="M1473.5,1137.29c3.34-6.24,7.44-10.33,13.47-12.07,8.58-2.48,15.15,3.1,14.21,12-.81,7.67-7.14,15.34-14.52,17.6-9.05,2.77-15.92-3.11-14.5-12.49A38.43,38.43,0,0,1,1473.5,1137.29Z" transform="translate(-367.81 -729.63)" fill="#f97316"/><path d="M1445.72,1119.51c2.29-4.74,4.48-7.35,7.54-9.15a9.85,9.85,0,0,1,14.14,3.75c4.69,8.14.9,21.43-7.38,25.91-5.35,2.89-11,1.33-13.88-4A18.47,18.47,0,0,1,1445.72,1119.51Z" transform="translate(-367.81 -729.63)" fill="#f97316"/><path d="M1484.07,1167.85c3.17-5.46,7.68-9,14-9.88,4.22-.6,8.09.35,10.69,4s2.24,7.62.33,11.41a17.89,17.89,0,0,1-13.55,10c-4.26.73-8.2-.08-11-3.74S1482.39,1171.83,1484.07,1167.85Z" transform="translate(-367.81 -729.63)" fill="#f97316"/><path d="M1436.36,1143.66c-.53.86-.95,1.68-1.5,2.41-5.11,6.89-13.86,6.2-17.55-1.54-3.2-6.73-2.56-13.33,2.06-19.24s12.52-5.39,16.39,1.07C1439.14,1132,1438.93,1137.85,1436.36,1143.66Z" transform="translate(-367.81 -729.63)" fill="#f97316"/><path d="M1033.14,1192.41c-3.46-.91-6.91-1.8-10.36-2.75-3.72-1-7.67-1.6-11.08-3.27-8.13-4-10-14.62-4.35-22.33a23.67,23.67,0,0,1,13-8.93A82.19,82.19,0,0,0,1037,1148a53.93,53.93,0,0,1,8-3.66,15.32,15.32,0,0,1,19.37,9.33,48.34,48.34,0,0,1,2,10.32,62.67,62.67,0,0,0,3.72,15.77,24.07,24.07,0,0,1,.94,16.14c-3.36,11.06-15.62,14.62-25,7.25-3.14-2.48-6.09-5.21-9.19-7.75-1.19-1-2.55-1.74-3.84-2.6Z" transform="translate(-367.81 -729.63)" fill="none" stroke="#fff" stroke-linecap="round" stroke-linejoin="round" stroke-width="14.29"/><path d="M1067.5,1132.29c3.34-6.24,7.44-10.33,13.47-12.07,8.58-2.48,15.15,3.1,14.21,12-.81,7.67-7.14,15.34-14.52,17.6-9.05,2.77-15.92-3.11-14.5-12.49A38.43,38.43,0,0,1,1067.5,1132.29Z" transform="translate(-367.81 -729.63)" fill="none" stroke="#fff" stroke-linecap="round" stroke-linejoin="round" stroke-width="14.29"/><path d="M1039.72,1114.51c2.29-4.74,4.48-7.35,7.54-9.15a9.85,9.85,0,0,1,14.14,3.75c4.69,8.14.9,21.43-7.38,25.91-5.35,2.89-11,1.33-13.88-4A18.47,18.47,0,0,1,1039.72,1114.51Z" transform="translate(-367.81 -729.63)" fill="none" stroke="#fff" stroke-linecap="round" stroke-linejoin="round" stroke-width="14.29"/><path d="M1078.07,1162.85c3.17-5.46,7.68-9,14-9.88,4.22-.6,8.09.35,10.69,4s2.24,7.62.33,11.41a17.89,17.89,0,0,1-13.55,10c-4.26.73-8.2-.08-11-3.74S1076.39,1166.83,1078.07,1162.85Z" transform="translate(-367.81 -729.63)" fill="none" stroke="#fff" stroke-linecap="round" stroke-linejoin="round" stroke-width="14.29"/><path d="M1030.36,1138.66c-.53.86-.95,1.68-1.5,2.41-5.11,6.89-13.86,6.2-17.55-1.54-3.2-6.73-2.56-13.33,2.06-19.24s12.52-5.39,16.39,1.07C1033.14,1127,1032.93,1132.85,1030.36,1138.66Z" transform="translate(-367.81 -729.63)" fill="none" stroke="#fff" stroke-linecap="round" stroke-linejoin="round" stroke-width="14.29"/><path d="M1033.14,1192.41c-3.46-.91-6.91-1.8-10.36-2.75-3.72-1-7.67-1.6-11.08-3.27-8.13-4-10-14.62-4.35-22.33a23.67,23.67,0,0,1,13-8.93A82.19,82.19,0,0,0,1037,1148a53.93,53.93,0,0,1,8-3.66,15.32,15.32,0,0,1,19.37,9.33,48.34,48.34,0,0,1,2,10.32,62.67,62.67,0,0,0,3.72,15.77,24.07,24.07,0,0,1,.94,16.14c-3.36,11.06-15.62,14.62-25,7.25-3.14-2.48-6.09-5.21-9.19-7.75-1.19-1-2.55-1.74-3.84-2.6Z" transform="translate(-367.81 -729.63)" fill="#f97316"/><path d="M1067.5,1132.29c3.34-6.24,7.44-10.33,13.47-12.07,8.58-2.48,15.15,3.1,14.21,12-.81,7.67-7.14,15.34-14.52,17.6-9.05,2.77-15.92-3.11-14.5-12.49A38.43,38.43,0,0,1,1067.5,1132.29Z" transform="translate(-367.81 -729.63)" fill="#f97316"/><path d="M1039.72,1114.51c2.29-4.74,4.48-7.35,7.54-9.15a9.85,9.85,0,0,1,14.14,3.75c4.69,8.14.9,21.43-7.38,25.91-5.35,2.89-11,1.33-13.88-4A18.47,18.47,0,0,1,1039.72,1114.51Z" transform="translate(-367.81 -729.63)" fill="#f97316"/><path d="M1078.07,1162.85c3.17-5.46,7.68-9,14-9.88,4.22-.6,8.09.35,10.69,4s2.24,7.62.33,11.41a17.89,17.89,0,0,1-13.55,10c-4.26.73-8.2-.08-11-3.74S1076.39,1166.83,1078.07,1162.85Z" transform="translate(-367.81 -729.63)" fill="#f97316"/><path d="M1030.36,1138.66c-.53.86-.95,1.68-1.5,2.41-5.11,6.89-13.86,6.2-17.55-1.54-3.2-6.73-2.56-13.33,2.06-19.24s12.52-5.39,16.39,1.07C1033.14,1127,1032.93,1132.85,1030.36,1138.66Z" transform="translate(-367.81 -729.63)" fill="#f97316"/></svg>